<svg width="31" height="30" viewBox="0 0 31 30" fill="none" xmlns="http://www.w3.org/2000/svg">
<rect width="30.4348" height="30" rx="5" fill="#8615DF"/>
<path d="M15.9229 11.0312V6.25H8.8916C8.39941 6.25 8.04785 6.63672 8.04785 7.09375V23.4062C8.04785 23.8984 8.39941 24.25 8.8916 24.25H20.7041C21.1611 24.25 21.5479 23.8984 21.5479 23.4062V11.875H16.7666C16.2744 11.875 15.9229 11.5234 15.9229 11.0312ZM18.1729 19.3281C18.1729 19.5742 17.9619 19.75 17.751 19.75H11.8447C11.5986 19.75 11.4229 19.5742 11.4229 19.3281V19.0469C11.4229 18.8359 11.5986 18.625 11.8447 18.625H17.751C17.9619 18.625 18.1729 18.8359 18.1729 19.0469V19.3281ZM18.1729 17.0781C18.1729 17.3242 17.9619 17.5 17.751 17.5H11.8447C11.5986 17.5 11.4229 17.3242 11.4229 17.0781V16.7969C11.4229 16.5859 11.5986 16.375 11.8447 16.375H17.751C17.9619 16.375 18.1729 16.5859 18.1729 16.7969V17.0781ZM18.1729 14.5469V14.8281C18.1729 15.0742 17.9619 15.25 17.751 15.25H11.8447C11.5986 15.25 11.4229 15.0742 11.4229 14.8281V14.5469C11.4229 14.3359 11.5986 14.125 11.8447 14.125H17.751C17.9619 14.125 18.1729 14.3359 18.1729 14.5469ZM21.5479 10.5391C21.5479 10.3281 21.4424 10.1172 21.3018 9.94141L17.8564 6.49609C17.6807 6.35547 17.4697 6.25 17.2588 6.25H17.0479V10.75H21.5479V10.5391Z" fill="white"/>
</svg>
