<svg width="27" height="30" viewBox="0 0 27 30" fill="none" xmlns="http://www.w3.org/2000/svg">
<rect x="0.881042" width="25.328" height="30" rx="5" fill="#8615DF"/>
<path d="M17.1153 21.4375C17.1153 19.8906 15.8497 18.625 14.3028 18.625C12.7208 18.625 11.4903 19.8906 11.4903 21.4375C11.4903 23.0195 12.7208 24.25 14.3028 24.25C15.8497 24.25 17.1153 23.0195 17.1153 21.4375ZM11.8067 7.16406L12.2637 16.7266C12.2989 17.1484 12.6856 17.5 13.1075 17.5H15.463C15.8848 17.5 16.2715 17.1484 16.3067 16.7266L16.7637 7.16406C16.7989 6.67188 16.4122 6.25 15.92 6.25H12.6505C12.1583 6.25 11.7715 6.67188 11.8067 7.16406Z" fill="white"/>
</svg>
