<svg width="27" height="30" viewBox="0 0 27 30" fill="none" xmlns="http://www.w3.org/2000/svg">
<rect x="0.794495" width="25.328" height="30" rx="5" fill="#DF1545"/>
<path d="M17.0287 21.4375C17.0287 19.8906 15.7631 18.625 14.2162 18.625C12.6342 18.625 11.4037 19.8906 11.4037 21.4375C11.4037 23.0195 12.6342 24.25 14.2162 24.25C15.7631 24.25 17.0287 23.0195 17.0287 21.4375ZM11.7202 7.16406L12.1772 16.7266C12.2123 17.1484 12.5991 17.5 13.0209 17.5H15.3764C15.7983 17.5 16.185 17.1484 16.2202 16.7266L16.6772 7.16406C16.7123 6.67188 16.3256 6.25 15.8334 6.25H12.5639C12.0717 6.25 11.685 6.67188 11.7202 7.16406Z" fill="white"/>
</svg>
