<svg width="31" height="30" viewBox="0 0 31 30" fill="none" xmlns="http://www.w3.org/2000/svg">
<rect x="0.503906" width="30.2521" height="30" rx="5" fill="#8615DF"/>
<path d="M14.957 6.49609L7.64453 9.23828C6.97656 9.48438 6.55469 10.1172 6.55469 10.8203V18.7305C6.55469 19.3633 6.90625 19.9609 7.46875 20.2422L14.7812 23.8984C15.2734 24.1445 15.8008 24.1445 16.293 23.8984L23.6055 20.2422C24.168 19.9609 24.5195 19.3633 24.5195 18.7305V10.8203C24.5195 10.1172 24.0977 9.48438 23.4297 9.23828L16.1172 6.49609C15.7656 6.35547 15.3438 6.35547 14.957 6.49609ZM15.5547 8.67578L22.3047 11.207V11.2422L15.5547 13.9844L8.80469 11.2422V11.207L15.5547 8.67578ZM16.6797 21.1914V15.9531L22.3047 13.668V18.3789L16.6797 21.1914Z" fill="white"/>
</svg>
